<svg id="clubs" xmlns="http://www.w3.org/2000/svg" width="30.161" height="30.161" viewBox="0 0 30.161 30.161">
  <path id="Path_201" data-name="Path 201" d="M48.085,11.736a7.686,7.686,0,0,0-4.79-.423A6.479,6.479,0,0,0,45.064,6.5C44.86,3,41.669.139,37.831,0c-4.3-.15-7.836,2.985-7.836,6.874a6.5,6.5,0,0,0,1.78,4.434,7.686,7.686,0,0,0-4.79.423,7.025,7.025,0,0,0-4.53,6.164c-.054,3.841,3.342,6.97,7.54,6.97a7.9,7.9,0,0,0,5.22-1.922v2.027a5.209,5.209,0,0,1-.807,2.771l-1.017,1.624a.531.531,0,0,0,.5.792h7.282a.531.531,0,0,0,.5-.792l-1.017-1.624a5.214,5.214,0,0,1-.807-2.771V22.947a7.9,7.9,0,0,0,5.22,1.922c4.2,0,7.594-3.129,7.54-6.97a7.025,7.025,0,0,0-4.53-6.163" transform="translate(-22.454 0)"/>
</svg>
