<svg xmlns="http://www.w3.org/2000/svg" width="30" height="40" viewBox="0 0 30 40">
  <g id="ace-of-spades" transform="translate(-21.17 -0.001)">
    <g id="Group_1" data-name="Group 1" transform="translate(21.17 0.001)">
      <path id="Path_206" data-name="Path 206" d="M51.17,20.87c.031-5.752-3.641-8.557-6.883-11.03l-.039-.03c-.707-.542-1.374-1.054-1.965-1.57-2.827-2.483-5.3-6.368-5.591-7.774A.554.554,0,0,0,36.162,0a.56.56,0,0,0-.477.447c-.33,1.4-2.49,5.17-5.611,7.707-.5.406-1.036.8-1.656,1.263-3.243,2.406-7.281,5.4-7.247,11.38.04,7.4,3.878,10.762,7.426,10.762a7.812,7.812,0,0,0,6.211-3.667c-.715,4.01-2.893,8.993-9.09,10.91a.624.624,0,0,0-.384.669.559.559,0,0,0,.518.53H46.5a.569.569,0,0,0,.52-.61.578.578,0,0,0-.4-.592c-.272-.1-6.57-2.4-8.74-10.707a7.871,7.871,0,0,0,6,3.191C47.479,31.284,51.128,28.063,51.17,20.87Z" transform="translate(-21.17 -0.001)"/>
    </g>
  </g>
</svg>
